<?xml version="1.0" encoding="utf-8"?>
<!-- Generator: Adobe Illustrator 27.5.0, SVG Export Plug-In . SVG Version: 6.00 Build 0)  -->
<svg version="1.1" xmlns="http://www.w3.org/2000/svg" xmlns:xlink="http://www.w3.org/1999/xlink" x="0px" y="0px"
	 viewBox="0 0 1920 1080" style="enable-background:new 0 0 1920 1080;" xml:space="preserve">
<style type="text/css">
	.st0{fill:#FF0000;}
	.st1{fill:none;stroke:#000000;stroke-width:0.5;stroke-miterlimit:10;}
	.st2{fill:none;stroke:#000000;stroke-width:0.1;stroke-miterlimit:10;}
</style>
<g id="Layer_1">
	<path class="st0" d="M1105.37,898.88c-0.38,0-0.74-0.2-0.95-0.52L1030.7,783.1c-0.07-0.11-0.12-0.22-0.15-0.35l-74.09-310.72
		l-73.45-4.93c-0.36-0.02-0.69-0.22-0.88-0.53l-73.51-119.38l-73.89-24.26c-0.28-0.09-0.51-0.29-0.65-0.55l-74.14-143.3
		l-72.61-47.51l-73.52,94.92l-74.22,239.82c-0.14,0.46-0.56,0.78-1.04,0.79c-0.47,0.01-0.92-0.27-1.09-0.72l-72.71-189.16
		l-73.2,176.99c-0.02,0.04-0.03,0.07-0.05,0.11l-74.28,136.91c-0.2,0.37-0.56,0.61-1,0.59c-0.42,0-0.8-0.24-0.99-0.61l-73.63-143.94
		L67.5,380.34c-0.15-0.13-0.26-0.3-0.32-0.49l-74.3-230.04c-0.19-0.59,0.13-1.23,0.72-1.42c0.59-0.19,1.23,0.13,1.42,0.73
		l74.21,229.75l74.05,66.87c0.1,0.09,0.19,0.2,0.25,0.32l72.75,142.22l73.23-134.99l74.25-179.54c0.17-0.42,0.58-0.7,1.04-0.7
		c0,0,0.01,0,0.01,0c0.46,0.01,0.87,0.29,1.04,0.72l72.56,188.76l73.32-236.92c0.04-0.13,0.1-0.25,0.19-0.36l74.28-95.91
		c0.36-0.46,1.01-0.57,1.5-0.25l73.72,48.24c0.16,0.11,0.29,0.25,0.38,0.42l74.07,143.16l73.84,24.25c0.25,0.08,0.47,0.25,0.61,0.48
		l73.42,119.24l73.7,4.95c0.49,0.03,0.9,0.38,1.02,0.86l74.23,311.34l72.64,113.57l73.34-123.12c0.18-0.3,0.49-0.5,0.84-0.54
		c0.34-0.04,0.69,0.08,0.94,0.33l73.89,76.09l73.17-9.35c0.05-0.01,0.09-0.01,0.14-0.01h74.28l74.31,2.22
		c0.14,0,0.28,0.04,0.41,0.09l73.59,31.54l73.96,11.59l74.1-11.61c0.13-0.02,0.26-0.02,0.39,0.01l73.16,14.3l73.86-69.45
		l74.14-79.22c0.43-0.45,1.14-0.48,1.59-0.05c0.45,0.42,0.48,1.14,0.05,1.59l-74.19,79.27l-74.33,69.89
		c-0.26,0.25-0.64,0.35-0.99,0.29l-73.53-14.38l-74.08,11.61c-0.12,0.02-0.23,0.02-0.35,0l-74.28-11.64
		c-0.09-0.01-0.18-0.04-0.27-0.08l-73.53-31.51l-74.06-2.21h-74.17l-73.65,9.41c-0.35,0.04-0.7-0.08-0.95-0.33l-73.26-75.44
		l-73.53,123.42c-0.2,0.33-0.56,0.54-0.95,0.55C1105.38,898.88,1105.38,898.88,1105.37,898.88z"/>
	<line class="st1" x1="640" y1="0" x2="640" y2="1080"/>
	<line class="st1" x1="1280" y1="0" x2="1280" y2="1080"/>
	<line class="st2" x1="-77.99" y1="0" x2="1944.56" y2="0"/>
	<line class="st2" x1="-77.99" y1="56.84" x2="1944.56" y2="56.84"/>
	<line class="st2" x1="-77.99" y1="113.68" x2="1944.56" y2="113.68"/>
	<line class="st2" x1="-73.41" y1="170.53" x2="1949.14" y2="170.53"/>
	<line class="st2" x1="-73.41" y1="227.37" x2="1949.14" y2="227.37"/>
	<line class="st2" x1="-73.41" y1="284.21" x2="1949.14" y2="284.21"/>
	<line class="st2" x1="-73.41" y1="341.05" x2="1949.14" y2="341.05"/>
	<line class="st2" x1="-73.41" y1="397.89" x2="1949.14" y2="397.89"/>
	<line class="st2" x1="-73.41" y1="454.74" x2="1949.14" y2="454.74"/>
	<line class="st2" x1="-73.41" y1="511.58" x2="1949.14" y2="511.58"/>
	<line class="st2" x1="-90.21" y1="568.42" x2="1932.34" y2="568.42"/>
	<line class="st2" x1="-90.21" y1="625.26" x2="1932.34" y2="625.26"/>
	<line class="st2" x1="-90.21" y1="682.11" x2="1932.34" y2="682.11"/>
	<line class="st2" x1="-85.63" y1="738.95" x2="1936.92" y2="738.95"/>
	<line class="st2" x1="-85.63" y1="795.79" x2="1936.92" y2="795.79"/>
	<line class="st2" x1="-85.63" y1="852.63" x2="1936.92" y2="852.63"/>
	<line class="st2" x1="-85.63" y1="909.47" x2="1936.92" y2="909.47"/>
	<line class="st2" x1="-85.63" y1="966.32" x2="1936.92" y2="966.32"/>
	<line class="st2" x1="-85.63" y1="1023.16" x2="1936.92" y2="1023.16"/>
	<line class="st2" x1="-85.63" y1="1080" x2="1936.92" y2="1080"/>
</g>
<g id="Layer_2">
</g>
</svg>
