<?xml version="1.0" encoding="UTF-8"?>
<svg id="Layer_1" data-name="Layer 1" xmlns="http://www.w3.org/2000/svg" viewBox="0 0 2039.35 1287.77">
  <defs>
    <style>
      .cls-1 {
        fill: red;
      }

      .cls-2 {
        stroke-width: .1px;
      }

      .cls-2, .cls-3 {
        fill: none;
        stroke: #000;
        stroke-miterlimit: 10;
      }

      .cls-3 {
        stroke-width: .5px;
      }
    </style>
  </defs>
  <path class="cls-1" d="m1195.58,939.15c-.38,0-.74-.2-.95-.52l-73.72-115.26c-.07-.11-.12-.22-.15-.35l-74.09-310.72-73.45-4.93c-.36-.02-.69-.22-.88-.53l-73.51-119.38-73.89-24.26c-.28-.09-.51-.29-.65-.55l-74.14-143.3-72.61-47.51-73.52,94.92-74.22,239.82c-.14.46-.56.78-1.04.79-.47,0-.92-.27-1.09-.72l-72.71-189.16-73.2,176.99s-.03.07-.05.11l-74.28,136.91c-.2.37-.56.61-1,.59-.42,0-.8-.24-.99-.61l-73.63-143.94-74.12-66.93c-.15-.13-.26-.3-.32-.49l-74.3-230.04c-.19-.59.13-1.23.72-1.42.59-.19,1.23.13,1.42.73l74.21,229.75,74.05,66.87c.1.09.19.2.25.32l72.75,142.22,73.23-134.99,74.25-179.54c.17-.42.58-.7,1.04-.7h.01c.46,0,.87.29,1.04.72l72.56,188.76,73.32-236.92c.04-.13.1-.25.19-.36l74.28-95.91c.36-.46,1.01-.57,1.5-.25l73.72,48.24c.16.11.29.25.38.42l74.07,143.16,73.84,24.25c.25.08.47.25.61.48l73.42,119.24,73.7,4.95c.49.03.9.38,1.02.86l74.23,311.34,72.64,113.57,73.34-123.12c.18-.3.49-.5.84-.54.34-.04.69.08.94.33l73.89,76.09,73.17-9.35s.09,0,.14,0h74.28l74.31,2.22c.14,0,.28.04.41.09l73.59,31.54,73.96,11.59,74.1-11.61c.13-.02.26-.02.39,0l73.16,14.3,73.86-69.45,74.14-79.22c.43-.45,1.14-.48,1.59-.05.45.42.48,1.14.05,1.59l-74.19,79.27-74.33,69.89c-.26.25-.64.35-.99.29l-73.53-14.38-74.08,11.61c-.12.02-.23.02-.35,0l-74.28-11.64c-.09-.01-.18-.04-.27-.08l-73.53-31.51-74.06-2.21h-74.17l-73.65,9.41c-.35.04-.7-.08-.95-.33l-73.26-75.44-73.53,123.42c-.2.33-.56.54-.95.55h-.02Z"/>
  <line class="cls-3" x1="730.21" x2="730.21" y2="1287.77"/>
  <line class="cls-3" x1="1370.21" x2="1370.21" y2="1235.83"/>
  <line class="cls-2" x1="12.22" y1="40.27" x2="2034.77" y2="40.27"/>
  <line class="cls-2" x1="12.22" y1="97.11" x2="2034.77" y2="97.11"/>
  <line class="cls-2" x1="12.22" y1="153.95" x2="2034.77" y2="153.95"/>
  <line class="cls-2" x1="16.8" y1="210.79" x2="2039.35" y2="210.79"/>
  <line class="cls-2" x1="16.8" y1="267.64" x2="2039.35" y2="267.64"/>
  <line class="cls-2" x1="16.8" y1="324.48" x2="2039.35" y2="324.48"/>
  <line class="cls-2" x1="16.8" y1="381.32" x2="2039.35" y2="381.32"/>
  <line class="cls-2" x1="16.8" y1="438.16" x2="2039.35" y2="438.16"/>
  <line class="cls-2" x1="16.8" y1="495" x2="2039.35" y2="495"/>
  <line class="cls-2" x1="16.8" y1="551.85" x2="2039.35" y2="551.85"/>
  <line class="cls-2" y1="608.69" x2="2022.55" y2="608.69"/>
  <line class="cls-2" y1="665.53" x2="2022.55" y2="665.53"/>
  <line class="cls-2" y1="722.37" x2="2022.55" y2="722.37"/>
  <line class="cls-2" x1="4.58" y1="779.21" x2="2027.13" y2="779.21"/>
  <line class="cls-2" x1="4.58" y1="836.06" x2="2027.13" y2="836.06"/>
  <line class="cls-2" x1="4.58" y1="892.9" x2="2027.13" y2="892.9"/>
  <line class="cls-2" x1="4.58" y1="949.74" x2="2027.13" y2="949.74"/>
  <line class="cls-2" x1="4.58" y1="1006.58" x2="2027.13" y2="1006.58"/>
  <line class="cls-2" x1="4.58" y1="1063.42" x2="2027.13" y2="1063.42"/>
  <line class="cls-2" x1="4.58" y1="1120.27" x2="2027.13" y2="1120.27"/>
</svg>